<svg width="24" height="24" viewBox="0 0 24 24" fill="none" xmlns="http://www.w3.org/2000/svg" class="css-1xdhyk6 e16tyahf0"><path d="M14.6156 14.8005C14.6147 14.8005 14.6141 14.8012 14.6141 14.802V22.1057C14.6141 22.2658 14.7245 22.4075 14.8916 22.4705C14.9483 22.4915 15.005 22.4994 15.0617 22.4994C15.178 22.4994 15.2914 22.46 15.378 22.3839L20.8687 17.554C20.9523 17.4806 21 17.3808 21 17.2758V9.84202C21 5.8075 17.3326 2.38198 12.0836 1.50787C12.0298 1.49738 11.9731 1.49738 11.9164 1.50787C6.66744 2.38198 3 5.8075 3 9.84202V17.2758C3 17.3808 3.04775 17.4806 3.1313 17.554L8.62202 22.3839C8.75033 22.4968 8.94131 22.5309 9.10842 22.4705C9.27553 22.4102 9.38594 22.2658 9.38594 22.1057V14.8005C9.38594 14.7611 9.37997 14.7218 9.36505 14.6824L8.2127 11.4154C8.12595 11.1695 8.37264 10.9376 8.61272 11.0394L11.3853 12.2149C11.445 12.2412 11.5136 12.2543 11.5792 12.2543H12.4237C12.4924 12.2543 12.558 12.2412 12.6177 12.2149L15.3903 11.0394C15.6303 10.9376 15.877 11.1695 15.7903 11.4154L14.6379 14.6824C14.6261 14.7187 14.6173 14.7576 14.617 14.799C14.617 14.7998 14.6164 14.8005 14.6156 14.8005V14.8005Z" stroke="#DFFF39" stroke-width="1.4"></path></svg>